<mxfile host="Electron" modified="2024-01-23T20:19:43.931Z" agent="Mozilla/5.0 (Windows NT 10.0; Win64; x64) AppleWebKit/537.36 (KHTML, like Gecko) draw.io/22.1.21 Chrome/120.0.6099.109 Electron/28.1.0 Safari/537.36" etag="M_NK2RjTA9FPB6cnncMC" version="22.1.21" type="device">
  <diagram name="Page-1" id="r5fSbcHTFFjfGL8UQ65w">
    <mxGraphModel dx="1050" dy="717" grid="1" gridSize="10" guides="1" tooltips="1" connect="1" arrows="1" fold="1" page="1" pageScale="1" pageWidth="850" pageHeight="1100" math="0" shadow="0">
      <root>
        <mxCell id="0" />
        <mxCell id="1" parent="0" />
        <mxCell id="fwCqymdrBDUFDbBmZqoj-2" value="Start" style="rounded=1;whiteSpace=wrap;html=1;arcSize=50;" vertex="1" parent="1">
          <mxGeometry x="365" y="110" width="120" height="30" as="geometry" />
        </mxCell>
        <mxCell id="fwCqymdrBDUFDbBmZqoj-3" value="Flowchart by Christopher Frosst" style="shape=note;whiteSpace=wrap;html=1;backgroundOutline=1;darkOpacity=0.05;" vertex="1" parent="1">
          <mxGeometry x="305" y="20" width="240" height="40" as="geometry" />
        </mxCell>
        <mxCell id="fwCqymdrBDUFDbBmZqoj-4" value="" style="endArrow=classic;html=1;rounded=0;exitX=0.5;exitY=1;exitDx=0;exitDy=0;entryX=0.5;entryY=0;entryDx=0;entryDy=0;" edge="1" parent="1" source="fwCqymdrBDUFDbBmZqoj-2" target="fwCqymdrBDUFDbBmZqoj-7">
          <mxGeometry width="50" height="50" relative="1" as="geometry">
            <mxPoint x="400" y="390" as="sourcePoint" />
            <mxPoint x="426.25" y="160" as="targetPoint" />
          </mxGeometry>
        </mxCell>
        <mxCell id="fwCqymdrBDUFDbBmZqoj-7" value="&lt;div style=&quot;text-align: left;&quot;&gt;&lt;span style=&quot;background-color: initial;&quot;&gt;Declarations&lt;/span&gt;&lt;/div&gt;num number&lt;br&gt;string name&lt;br&gt;string message" style="rounded=0;whiteSpace=wrap;html=1;" vertex="1" parent="1">
          <mxGeometry x="355" y="190" width="140" height="80" as="geometry" />
        </mxCell>
        <mxCell id="fwCqymdrBDUFDbBmZqoj-8" value="output &quot;Please enter a number&quot;&lt;br&gt;input number&lt;br&gt;output &quot;Please enter your name&quot;&lt;br&gt;input name" style="shape=parallelogram;perimeter=parallelogramPerimeter;whiteSpace=wrap;html=1;fixedSize=1;" vertex="1" parent="1">
          <mxGeometry x="278" y="330" width="295" height="60" as="geometry" />
        </mxCell>
        <mxCell id="fwCqymdrBDUFDbBmZqoj-9" value="" style="endArrow=classic;html=1;rounded=0;exitX=0.5;exitY=1;exitDx=0;exitDy=0;entryX=0.5;entryY=0;entryDx=0;entryDy=0;" edge="1" parent="1" source="fwCqymdrBDUFDbBmZqoj-7" target="fwCqymdrBDUFDbBmZqoj-8">
          <mxGeometry width="50" height="50" relative="1" as="geometry">
            <mxPoint x="400" y="390" as="sourcePoint" />
            <mxPoint x="450" y="340" as="targetPoint" />
          </mxGeometry>
        </mxCell>
        <mxCell id="fwCqymdrBDUFDbBmZqoj-10" value="message = &quot;Hello &quot; + name + &quot;, you entered the number &quot; + number" style="rounded=0;whiteSpace=wrap;html=1;" vertex="1" parent="1">
          <mxGeometry x="233" y="440" width="385" height="60" as="geometry" />
        </mxCell>
        <mxCell id="fwCqymdrBDUFDbBmZqoj-11" value="" style="endArrow=classic;html=1;rounded=0;exitX=0.5;exitY=1;exitDx=0;exitDy=0;entryX=0.5;entryY=0;entryDx=0;entryDy=0;" edge="1" parent="1" source="fwCqymdrBDUFDbBmZqoj-8" target="fwCqymdrBDUFDbBmZqoj-10">
          <mxGeometry width="50" height="50" relative="1" as="geometry">
            <mxPoint x="400" y="390" as="sourcePoint" />
            <mxPoint x="450" y="340" as="targetPoint" />
          </mxGeometry>
        </mxCell>
        <mxCell id="fwCqymdrBDUFDbBmZqoj-12" value="output message" style="shape=parallelogram;perimeter=parallelogramPerimeter;whiteSpace=wrap;html=1;fixedSize=1;" vertex="1" parent="1">
          <mxGeometry x="325" y="540" width="200" height="40" as="geometry" />
        </mxCell>
        <mxCell id="fwCqymdrBDUFDbBmZqoj-13" value="" style="endArrow=classic;html=1;rounded=0;exitX=0.5;exitY=1;exitDx=0;exitDy=0;entryX=0.5;entryY=0;entryDx=0;entryDy=0;" edge="1" parent="1" source="fwCqymdrBDUFDbBmZqoj-10" target="fwCqymdrBDUFDbBmZqoj-12">
          <mxGeometry width="50" height="50" relative="1" as="geometry">
            <mxPoint x="200" y="640" as="sourcePoint" />
            <mxPoint x="250" y="590" as="targetPoint" />
          </mxGeometry>
        </mxCell>
        <mxCell id="fwCqymdrBDUFDbBmZqoj-14" value="Stop" style="rounded=1;whiteSpace=wrap;html=1;arcSize=50;" vertex="1" parent="1">
          <mxGeometry x="365" y="630" width="120" height="30" as="geometry" />
        </mxCell>
        <mxCell id="fwCqymdrBDUFDbBmZqoj-15" value="" style="endArrow=classic;html=1;rounded=0;exitX=0.5;exitY=1;exitDx=0;exitDy=0;entryX=0.5;entryY=0;entryDx=0;entryDy=0;" edge="1" parent="1" source="fwCqymdrBDUFDbBmZqoj-12" target="fwCqymdrBDUFDbBmZqoj-14">
          <mxGeometry width="50" height="50" relative="1" as="geometry">
            <mxPoint x="260" y="680" as="sourcePoint" />
            <mxPoint x="310" y="630" as="targetPoint" />
          </mxGeometry>
        </mxCell>
      </root>
    </mxGraphModel>
  </diagram>
</mxfile>
